<?xml version="1.0" encoding="UTF-8"?><svg id="Layer_1" xmlns="http://www.w3.org/2000/svg" viewBox="0 0 1024 1024"><defs><style>.cls-1{fill:#424da0;}</style></defs><polygon class="cls-1" points="402.3 709.82 393.3 746.2 372.57 828.73 431.64 828.73 411.3 746.2 402.3 709.82"/><path class="cls-1" d="M0,0v1024h1024V0H0ZM553.97,329.8h46.94v233.13h99.74v40.68h-146.68v-273.81ZM320.74,329.8h46.94v208.88c0,19.56,4.69,26.21,25.82,26.21h17.99c21.12,0,25.82-6.65,25.82-26.21v-208.88h46.94v219.44c0,35.6-20.73,56.33-63.76,56.33h-35.99c-43.03,0-63.76-20.73-63.76-56.33v-219.44ZM102.57,329.8h59.07l32.47,97.79,30.51,103.27-1.57-103.27v-97.79h43.81v273.81h-59.07l-32.47-97.79-30.51-103.27,1.56,103.27v97.79h-43.81v-273.81ZM267.71,687.92h-110.75v91.92h101.71v40.68h-101.71v100.53h-54.24v-273.81h164.99v40.68ZM453.15,921.04l-12.91-51.63h-76.27l-12.91,51.63h-48.9l73.54-273.81h53.59l73.54,273.81h-49.68ZM670,921.04l-48.5-114.61-30.51,55.54v59.06h-46.94v-273.81h46.94v132.21l69.63-132.21h52.02l-60.24,113.83,70.41,159.98h-52.81ZM771.85,329.8h46.94v233.13h99.74v40.68h-146.68v-273.81ZM918.72,687.92h-99.75v70.8h91.53v40.68h-91.53v80.97h99.75v40.68h-146.68v-273.81h146.68v40.68Z"/></svg>
